<?xml version="1.0" encoding="UTF-8"?>
<svg version="1.1" xmlns="http://www.w3.org/2000/svg" width="208" height="298">
<path d="M0 0 C68.64 0 137.28 0 208 0 C208 98.34 208 196.68 208 298 C139.36 298 70.72 298 0 298 C0 199.66 0 101.32 0 0 Z " fill="#FEFEFE" transform="translate(0,0)"/>
<path d="M0 0 C68.64 0 137.28 0 208 0 C208 98.34 208 196.68 208 298 C139.36 298 70.72 298 0 298 C0 199.66 0 101.32 0 0 Z M16 15 C14.81645166 17.36709669 14.87054976 18.79235859 14.86298561 21.43320179 C14.85791107 22.3711338 14.85283653 23.30906582 14.84760821 24.27542001 C14.84711045 25.31284882 14.84661269 26.35027763 14.84609985 27.41914368 C14.8417176 28.51580028 14.83733535 29.61245689 14.8328203 30.74234551 C14.81939353 34.44192017 14.81324477 38.14147099 14.80712891 41.84106445 C14.79923109 44.48346133 14.79096773 47.1258551 14.78234863 49.76824951 C14.75781383 57.71558998 14.74319647 65.66293674 14.73028857 73.61030343 C14.7265776 75.85415017 14.7226043 78.09799629 14.7185359 80.34184241 C14.69330179 94.26953405 14.67124411 108.19722665 14.65880775 122.1249361 C14.65587796 125.35176408 14.65291631 128.57859202 14.64990234 131.80541992 C14.64915629 132.60745274 14.64841024 133.40948556 14.64764158 134.2358224 C14.63498323 147.23333572 14.60175431 160.23071238 14.56010051 173.22816179 C14.51770611 186.56578655 14.49411567 199.90334129 14.48888719 213.24103326 C14.48547036 220.73237444 14.47368338 228.22350203 14.44078445 235.71477699 C14.412817 242.09364938 14.40176994 248.4722644 14.41297992 254.85119335 C14.41817516 258.10666596 14.41251216 261.36148499 14.39051437 264.61690331 C14.36796669 268.14502551 14.37605228 271.67177817 14.39199829 275.1999054 C14.3781162 276.23064204 14.36423412 277.26137869 14.34993136 278.32334977 C14.41008406 284.12978902 14.41008406 284.12978902 17.35050011 289.05000591 C26.42768306 295.73068295 36.58394886 296.17991299 47.5 296.25 C48.30308594 296.270625 49.10617188 296.29125 49.93359375 296.3125 C55.61864568 296.34935609 59.82591335 295.40058975 65 293 C66.46173092 290.07653816 66.14157916 287.49574821 66.15821838 284.22970581 C66.16562535 283.17358603 66.16562535 283.17358603 66.17318195 282.09613049 C66.18859963 279.72538502 66.19692908 277.35466671 66.20532227 274.98388672 C66.21489744 273.28902953 66.2249073 271.59417475 66.23532104 269.89932251 C66.26241529 265.28803311 66.28340034 260.67673344 66.30332303 256.06540823 C66.32515476 251.25005807 66.35255718 246.43473977 66.37937927 241.61941528 C66.42934428 232.49634612 66.47426895 223.37325931 66.51740164 214.25015557 C66.56674151 203.86576338 66.62167167 193.48140315 66.67708123 183.09704185 C66.79095971 161.73139099 66.89778594 140.36570963 67 119 C67.79434448 120.59654419 67.79434448 120.59654419 68.60473633 122.2253418 C70.57631835 126.18665193 72.55057776 130.14662263 74.52563477 134.10620117 C75.3789014 135.81775271 76.23144858 137.52966312 77.08325195 139.24194336 C78.31010465 141.70782417 79.53956751 144.17238852 80.76953125 146.63671875 C81.14777542 147.39836838 81.52601959 148.16001801 81.91572571 148.94474792 C82.92887278 150.97125455 83.95990918 152.98722185 85 155 C85.50328323 155.98578537 86.00656647 156.97157074 86.52510071 157.98722839 C87.01181747 158.65144302 87.49853424 159.31565765 88 160 C91.05841876 160.45340965 93.55463857 160.5847985 96.60546875 160.48828125 C97.86427605 160.47766914 97.86427605 160.47766914 99.14851379 160.46684265 C101.82908259 160.43885167 104.50756267 160.37610801 107.1875 160.3125 C109.00452712 160.28742305 110.82158699 160.26460882 112.63867188 160.24414062 C117.09325278 160.18900999 121.54627229 160.10270783 126 160 C126.31114746 159.39752441 126.62229492 158.79504883 126.94287109 158.17431641 C128.41745609 155.32309132 129.89623658 152.47406009 131.375 149.625 C131.86355469 148.67882812 132.35210937 147.73265625 132.85546875 146.7578125 C136.20961252 140.30427006 139.68446682 133.92848362 143.22509766 127.57568359 C143.68580154 126.74779831 144.14650543 125.91991302 144.62117004 125.06694031 C145.74684954 123.0442934 146.87313859 121.0219886 148 119 C148.00238835 119.8509106 148.00477671 120.70182119 148.00723743 121.57851696 C148.06635564 142.27645134 148.14188531 162.97426898 148.23571491 183.67207623 C148.28069372 193.68135717 148.32010358 203.69060237 148.34643555 213.69995117 C148.36939874 222.42339726 148.40277795 231.14673042 148.44870156 239.87008697 C148.47265644 244.48968391 148.49137036 249.10916886 148.49761391 253.72882652 C148.50365452 258.07662257 148.52361723 262.42413197 148.55427551 266.77182198 C148.56307217 268.36774583 148.56677495 269.96370712 148.56500816 271.55965424 C148.56335722 273.73900992 148.58003799 275.91748988 148.60127258 278.09672546 C148.60818603 279.92602364 148.60818603 279.92602364 148.61523914 281.79227734 C149.03561986 285.29696011 149.92193907 287.17844499 152 290 C153.68132063 291.34939168 153.68132063 291.34939168 155.625 292.1875 C156.54152344 292.64189453 156.54152344 292.64189453 157.4765625 293.10546875 C165.34687679 295.89540988 172.88344041 296.31162567 181.1875 296.25 C182.24130859 296.25773437 183.29511719 296.26546875 184.38085938 296.2734375 C191.94698541 296.37524029 191.94698541 296.37524029 199 294 C200.98882818 290.16529214 201.25455737 286.91922867 201.26742554 282.63937378 C201.27595551 281.35255203 201.28448547 280.06573029 201.29327393 278.73991394 C201.29257468 277.31863391 201.2916515 275.89735398 201.29052734 274.47607422 C201.29651764 272.97142709 201.30332434 271.46678302 201.31088257 269.96214294 C201.32860024 265.85627816 201.33324321 261.75049685 201.33451414 257.64459753 C201.33594463 255.04171378 201.34023329 252.43885047 201.34550858 249.83597183 C201.36409788 240.63965807 201.37217684 231.4434022 201.37060547 222.24707031 C201.36956084 214.79092538 201.38311857 207.33499601 201.41162109 199.87890625 C201.58594996 153.26243178 200.65422156 106.90536595 197.69822502 60.37676048 C197.14069573 51.55725084 196.66843752 42.73930049 196.33957863 33.90815926 C196.18343802 29.96989529 195.96270636 26.04449432 195.60562134 22.118927 C195.50927115 21.05289844 195.50927115 21.05289844 195.4109745 19.96533394 C194.65180743 16.33489751 192.67071373 14.43847775 190 12 C182.92426497 8.2691579 175.9585794 7.78558321 168.125 7.6875 C167.36058594 7.65849609 166.59617188 7.62949219 165.80859375 7.59960938 C160.23927316 7.53814828 155.44344375 8.45967099 151 12 C147.27632879 16.7990914 145.14623103 22.04039153 142.90234375 27.65234375 C142.5151265 28.60517242 142.12790924 29.5580011 141.72895813 30.53970337 C140.45876503 33.66976299 139.19809317 36.80356326 137.9375 39.9375 C137.05690496 42.11278771 136.17571201 44.28783346 135.29394531 46.46264648 C132.99020237 52.14912923 130.6944466 57.83880311 128.40032959 63.5291748 C126.09090997 69.25324995 123.7737146 74.97417426 121.45703125 80.6953125 C116.9640613 91.79393531 112.47936006 102.89587797 108 114 C106.20401963 111.30602944 105.12857629 109.03431457 103.9597168 106.04248047 C103.56093826 105.0269812 103.16215973 104.01148193 102.751297 102.96520996 C102.32161118 101.86036255 101.89192535 100.75551514 101.44921875 99.6171875 C100.99846481 98.46641724 100.54771088 97.31564697 100.08329773 96.13000488 C99.11645056 93.66040412 98.1508876 91.19034564 97.18743896 88.71942139 C95.6880698 84.87455136 94.18264064 81.03207251 92.67626953 77.18994141 C88.68405258 67.00377402 84.69911434 56.81481503 80.7457428 46.61349487 C79.55788188 43.54995095 78.36535418 40.48823721 77.17202759 37.42681885 C76.39523219 35.42708452 75.62653554 33.42436585 74.8581543 31.42138672 C71.17087648 21.959328 68.10689562 15.11106003 58.6875 10.3125 C46.24545418 5.88397522 25.95266592 5.04733408 16 15 Z " fill="#1E4041" transform="translate(0,0)"/>
<path d="M0 0 C68.64 0 137.28 0 208 0 C208 30.69 208 61.38 208 93 C206.02 93 204.04 93 202 93 C202.00523682 93.58378418 202.01047363 94.16756836 202.01586914 94.76904297 C202.03694081 97.47101724 202.04975459 100.17297411 202.0625 102.875 C202.07087891 103.7928125 202.07925781 104.710625 202.08789062 105.65625 C202.10964173 111.8335647 201.73930108 117.86721835 201 124 C200.67 124 200.34 124 200 124 C199.49467078 114.60122713 198.99034284 105.20240118 198.48720646 95.80351067 C198.25341446 91.43669012 198.01930951 87.06988687 197.78442383 82.703125 C197.51286077 77.65369774 197.24246493 72.60420879 196.97265625 67.5546875 C196.90675734 66.32407215 196.90675734 66.32407215 196.83952713 65.06859589 C196.27957495 54.59285973 195.73775034 44.1171303 195.33839417 33.63375854 C195.2797552 24.02093369 195.2797552 24.02093369 192.375 15.125 C185.5412308 9.01057493 176.82707913 8.79645759 168.125 8.6875 C167.36058594 8.65849609 166.59617188 8.62949219 165.80859375 8.59960938 C160.16451832 8.53732331 155.43581095 9.30400335 151 13 C148.73503526 16.08142007 147.42701519 19.46681318 146 23 C145.41924469 24.38227852 144.83692892 25.76390201 144.25341797 27.14501953 C142.10588981 32.26714971 140.02226154 37.41458277 137.9375 42.5625 C137.15876111 44.47704883 136.37961882 46.39143361 135.60009766 48.30566406 C133.9426653 52.3770243 132.28730231 56.44921749 130.63330078 60.52197266 C127.88683445 67.28207865 125.12992402 74.03790065 122.37109375 80.79296875 C121.91010788 81.92170914 121.44912201 83.05044952 120.97416687 84.21339417 C120.05849755 86.45533283 119.14280269 88.69726107 118.2270813 90.93917847 C116.06434355 96.2350425 113.90321255 101.5315619 111.7421875 106.828125 C111.36182846 107.76033371 110.98146942 108.69254242 110.58958435 109.65299988 C109.72636656 111.7686572 108.86317005 113.8843232 108 116 C105.91517497 113.91517497 105.33511626 112.66557179 104.29858398 109.95727539 C103.97260223 109.11368469 103.64662048 108.27009399 103.3107605 107.40093994 C102.95942047 106.47585632 102.60808044 105.55077271 102.24609375 104.59765625 C101.87300079 103.62850281 101.49990784 102.65934937 101.11550903 101.66082764 C100.30761803 99.56100559 99.50204758 97.4602896 98.69851685 95.35879517 C97.00282652 90.92626451 95.29383187 86.49890918 93.58525085 82.07133484 C92.7054312 79.79135227 91.82613434 77.51116789 90.94734192 75.23078918 C86.88123938 64.68068799 82.79451707 54.13891105 78.66116333 43.61495972 C77.9325574 41.75643882 77.2066762 39.89684728 76.48361206 38.03616333 C75.47625168 35.4445996 74.45997969 32.8567046 73.44140625 30.26953125 C73.15049103 29.51540955 72.85957581 28.76128784 72.55984497 27.98431396 C69.32758002 19.83986838 65.61695415 14.80847708 57.625 10.8125 C47.10347977 7.55583898 33.59925715 7.6705631 23.11328125 10.85546875 C19.94269616 12.57262482 18.2399225 14.11662731 16 17 C15.24893098 20.57337766 15.32283005 24.0971251 15.36076355 27.73762512 C15.35240787 28.83220573 15.3440522 29.92678633 15.33544332 31.05453604 C15.31346363 34.72914355 15.32713665 38.40275646 15.34057617 42.07739258 C15.33212607 44.70864625 15.32148341 47.33989366 15.30880737 49.97113037 C15.28496638 55.63946567 15.27935881 61.30758352 15.28615379 66.97596169 C15.29595174 75.17142209 15.2782227 83.36664132 15.25378648 91.5620627 C15.21488711 104.85868189 15.19823337 118.15523212 15.19555664 131.4519043 C15.19290892 144.3679559 15.17979221 157.28392693 15.15258789 170.19995117 C15.15091451 170.99616537 15.14924113 171.79237958 15.14751705 172.61272148 C15.13905754 176.60711571 15.13039214 180.60150947 15.12162435 184.59590304 C15.04915932 217.73059331 15.01279148 250.86523213 15 284 C14.67 284 14.34 284 14 284 C14 205.79 14 127.58 14 47 C9.38 47 4.76 47 0 47 C0 31.49 0 15.98 0 0 Z " fill="#2C5C5F" transform="translate(0,0)"/>
<path d="M0 0 C4.62 0 9.24 0 14 0 C14.00238835 1.21682559 14.00477671 2.43365118 14.00723743 3.68735027 C14.06458437 32.56557586 14.13730571 61.44373533 14.22898628 90.32187141 C14.24025459 93.87546926 14.25139301 97.42906751 14.26245117 100.98266602 C14.26465486 101.69013016 14.26685854 102.39759431 14.269129 103.12649677 C14.30451143 114.58502564 14.32937022 126.04355445 14.35034702 137.50211772 C14.37210156 149.25770463 14.40514864 161.01322058 14.44870156 172.76874715 C14.4726764 179.37248213 14.49137726 185.97613846 14.49761391 192.579916 C14.50364545 198.79247576 14.52357543 205.00483415 14.55427551 211.21731949 C14.56308673 213.50019879 14.56677198 215.78310436 14.56500816 218.06599998 C14.56336258 221.17799822 14.57999401 224.28937738 14.60127258 227.40129089 C14.59642501 228.30888143 14.59157743 229.21647197 14.58658296 230.15156525 C14.64056996 234.921514 14.88638061 238.13511168 18 242 C26.3104276 248.2328207 37.52849744 248.17949719 47.5 248.1875 C48.30308594 248.19974609 49.10617188 248.21199219 49.93359375 248.22460938 C51.12662109 248.22750977 51.12662109 248.22750977 52.34375 248.23046875 C53.04693359 248.23457764 53.75011719 248.23868652 54.47460938 248.24291992 C58.04536658 247.89944511 61.51986722 246.8700332 65 246 C65.33 229.17 65.66 212.34 66 195 C76.89 195 87.78 195 99 195 C99 198.96 99 202.92 99 207 C95.04 207 91.08 207 87 207 C87 214.59 87 222.18 87 230 C107.46 230 127.92 230 149 230 C149.66 233.3 150.32 236.6 151 240 C154.26516131 244.89774197 159.99915484 246.31289059 165.5078125 247.57421875 C170.67218468 248.20387934 175.80261391 248.14383111 181 248.125 C182.60101563 248.13080078 182.60101563 248.13080078 184.234375 248.13671875 C189.26129735 248.13046636 194.06335054 248.07989207 199 247 C199.9743319 242.91617107 200.13431926 239.08955815 200.15148926 234.8963623 C200.15572167 234.1922854 200.15995408 233.48820849 200.16431475 232.76279593 C200.17730581 230.40891902 200.18335782 228.05507597 200.18945312 225.70117188 C200.19739943 224.01038916 200.2057877 222.31960846 200.21458435 220.62882996 C200.2326329 216.9872039 200.24765282 213.34558229 200.26036072 209.70393372 C200.28064685 203.92608823 200.30829861 198.14829218 200.33703613 192.3704834 C200.39711322 180.08034571 200.44881604 167.7901774 200.5 155.5 C200.55521904 142.28440422 200.61215768 129.06882377 200.67754889 115.85327387 C200.70103747 111.06111975 200.72262615 106.26897321 200.73963928 101.47679138 C200.87640936 63.11784762 200.87640936 63.11784762 202 46 C203.98 46 205.96 46 208 46 C208 113.65 208 181.3 208 251 C139.36 251 70.72 251 0 251 C0 168.17 0 85.34 0 0 Z " fill="#164447" transform="translate(0,47)"/>
<path d="M0 0 C3.3 0 6.6 0 10 0 C10 3.63 10 7.26 10 11 C34.09 11 58.18 11 83 11 C83 30.14 83 49.28 83 69 C62.54 69 42.08 69 21 69 C21 61.41 21 53.82 21 46 C24.96 46 28.92 46 33 46 C33 42.04 33 38.08 33 34 C22.11 34 11.22 34 0 34 C0 22.78 0 11.56 0 0 Z " fill="#103A3E" transform="translate(66,208)"/>
<path d="M0 0 C1.98 0 3.96 0 6 0 C6 67.65 6 135.3 6 205 C-26.34 205 -58.68 205 -92 205 C-92 201.7 -92 198.4 -92 195 C-99.59 195 -107.18 195 -115 195 C-115 191.37 -115 187.74 -115 184 C-94.54 184 -74.08 184 -53 184 C-52.34 187.3 -51.68 190.6 -51 194 C-47.73483869 198.89774197 -42.00084516 200.31289059 -36.4921875 201.57421875 C-31.32781532 202.20387934 -26.19738609 202.14383111 -21 202.125 C-19.39898437 202.13080078 -19.39898437 202.13080078 -17.765625 202.13671875 C-12.73870265 202.13046636 -7.93664946 202.07989207 -3 201 C-2.0256681 196.91617107 -1.86568074 193.08955815 -1.84851074 188.8963623 C-1.84427833 188.1922854 -1.84004592 187.48820849 -1.83568525 186.76279593 C-1.82269419 184.40891902 -1.81664218 182.05507597 -1.81054688 179.70117188 C-1.80260057 178.01038916 -1.7942123 176.31960846 -1.78541565 174.62882996 C-1.7673671 170.9872039 -1.75234718 167.34558229 -1.73963928 163.70393372 C-1.71935315 157.92608823 -1.69170139 152.14829218 -1.66296387 146.3704834 C-1.60288678 134.08034571 -1.55118396 121.7901774 -1.5 109.5 C-1.44478096 96.28440422 -1.38784232 83.06882377 -1.32245111 69.85327387 C-1.29896253 65.06111975 -1.27737385 60.26897321 -1.26036072 55.47679138 C-1.12359064 17.11784762 -1.12359064 17.11784762 0 0 Z " fill="#0A4144" transform="translate(202,93)"/>
<path d="M0 0 C10.89 0 21.78 0 33 0 C33 3.63 33 7.26 33 11 C36.96 11 40.92 11 45 11 C45 14.96 45 18.92 45 23 C47.64 23 50.28 23 53 23 C52.39572747 28.01052816 50.80541001 32.33026313 48.83203125 36.93359375 C48.35608772 38.06608299 48.35608772 38.06608299 47.87052917 39.22145081 C46.85722264 41.62940047 45.83523905 44.03354352 44.8125 46.4375 C43.48340672 49.5810749 42.1577107 52.72607798 40.83203125 55.87109375 C40.50888947 56.63586029 40.18574768 57.40062683 39.85281372 58.18856812 C36.80421365 65.42068789 33.88214679 72.70005305 31 80 C28.85732317 77.85732317 28.25940185 76.46924836 27.1875 73.67163086 C26.6650898 72.32019989 26.6650898 72.32019989 26.13212585 70.94146729 C25.75852432 69.95918152 25.38492279 68.97689575 25 67.96484375 C24.60758621 66.94638367 24.21517242 65.92792358 23.81086731 64.87860107 C22.53573335 61.56674043 21.2677808 58.25218158 20 54.9375 C18.27714402 50.45219847 16.55095841 45.96818262 14.82421875 41.484375 C14.40315353 40.38965378 13.98208832 39.29493256 13.54826355 38.16703796 C10.00962666 28.98313564 6.3749043 19.84188265 2.59179688 10.75561523 C2.23794922 9.89137939 1.88410156 9.02714355 1.51953125 8.13671875 C1.22151611 7.42217529 0.92350098 6.70763184 0.61645508 5.97143555 C0 4 0 4 0 0 Z " fill="#204646" transform="translate(77,36)"/>
<path d="M0 0 C28.71 0 57.42 0 87 0 C87 4.29 87 8.58 87 13 C90.96 13 94.92 13 99 13 C99 16.63 99 20.26 99 24 C91.41 24 83.82 24 76 24 C76 20.37 76 16.74 76 13 C74.205625 13.2475 72.41125 13.495 70.5625 13.75 C65.0705797 14.22755829 61.8781855 13.47877228 57.05078125 10.9921875 C53.76973096 9.40478412 50.57916722 9.13485088 47 9 C45.77667969 8.9484375 44.55335937 8.896875 43.29296875 8.84375 C34.41967548 8.5894737 25.82841582 8.46002247 18.4078722 13.90043163 C14.90723076 18.40668303 15.30281492 22.17626097 15.36076355 27.73762512 C15.35240787 28.83220573 15.3440522 29.92678633 15.33544332 31.05453604 C15.31346363 34.72914355 15.32713665 38.40275646 15.34057617 42.07739258 C15.33212607 44.70864625 15.32148341 47.33989366 15.30880737 49.97113037 C15.28496638 55.63946567 15.27935881 61.30758352 15.28615379 66.97596169 C15.29595174 75.17142209 15.2782227 83.36664132 15.25378648 91.5620627 C15.21488711 104.85868189 15.19823337 118.15523212 15.19555664 131.4519043 C15.19290892 144.3679559 15.17979221 157.28392693 15.15258789 170.19995117 C15.15091451 170.99616537 15.14924113 171.79237958 15.14751705 172.61272148 C15.13905754 176.60711571 15.13039214 180.60150947 15.12162435 184.59590304 C15.04915932 217.73059331 15.01279148 250.86523213 15 284 C14.67 284 14.34 284 14 284 C14 205.79 14 127.58 14 47 C9.38 47 4.76 47 0 47 C0 31.49 0 15.98 0 0 Z " fill="#2F656B" transform="translate(0,0)"/>
<path d="M0 0 C0.33 0 0.66 0 1 0 C1 33.66 1 67.32 1 102 C-4.28 102 -9.56 102 -15 102 C-15 86.82 -15 71.64 -15 56 C-18.63 56 -22.26 56 -26 56 C-26 59.96 -26 63.92 -26 68 C-29.96 68 -33.92 68 -38 68 C-38 60.08 -38 52.16 -38 44 C-45.26 44 -52.52 44 -60 44 C-60 43.67 -60 43.34 -60 43 C-47.46 43 -34.92 43 -22 43 C-21.34 41.02 -20.68 39.04 -20 37 C-18.94372677 34.84635275 -17.83983973 32.71565676 -16.69921875 30.60546875 C-16.38096634 30.01381424 -16.06271393 29.42215973 -15.7348175 28.81257629 C-14.72347341 26.93512093 -13.70555994 25.06132046 -12.6875 23.1875 C-12.01585264 21.94228557 -11.34462523 20.69684454 -10.67382812 19.45117188 C-7.16315049 12.94123108 -3.61487933 6.45276859 0 0 Z " fill="#284849" transform="translate(148,117)"/>
<path d="M0 0 C10.89 0 21.78 0 33 0 C33 3.96 33 7.92 33 12 C29.04 12 25.08 12 21 12 C21 23.22 21 34.44 21 46 C28.59 46 36.18 46 44 46 C44 49.3 44 52.6 44 56 C10.01 56 -23.98 56 -59 56 C-59 49.07 -59 42.14 -59 35 C-56.69 35 -54.38 35 -52 35 C-51.91363281 35.59167969 -51.82726562 36.18335938 -51.73828125 36.79296875 C-50.75722937 42.31026049 -49.73035896 45.5780382 -45 49 C-36.56381267 52.8317034 -27.61999599 53.18018058 -18.5 53.1875 C-17.69691406 53.19974609 -16.89382812 53.21199219 -16.06640625 53.22460938 C-14.87337891 53.22750977 -14.87337891 53.22750977 -13.65625 53.23046875 C-12.95306641 53.23457764 -12.24988281 53.23868652 -11.52539062 53.24291992 C-7.95463342 52.89944511 -4.48013278 51.8700332 -1 51 C-0.67 34.17 -0.34 17.34 0 0 Z " fill="#2B696B" transform="translate(66,242)"/>
<path d="M0 0 C13.2 0 26.4 0 40 0 C40 30.69 40 61.38 40 93 C38.02 93 36.04 93 34 93 C34.00523682 93.58378418 34.01047363 94.16756836 34.01586914 94.76904297 C34.03694081 97.47101724 34.04975459 100.17297411 34.0625 102.875 C34.07087891 103.7928125 34.07925781 104.710625 34.08789062 105.65625 C34.10964173 111.8335647 33.73930108 117.86721835 33 124 C32.67 124 32.34 124 32 124 C31.49467078 114.60122713 30.99034284 105.20240118 30.48720646 95.80351067 C30.25341446 91.43669012 30.01930951 87.06988687 29.78442383 82.703125 C29.51286077 77.65369774 29.24246493 72.60420879 28.97265625 67.5546875 C28.92872364 66.73427727 28.88479103 65.91386703 28.83952713 65.06859589 C28.27957495 54.59285973 27.73775034 44.1171303 27.33839417 33.63375854 C27.2797552 24.02093369 27.2797552 24.02093369 24.375 15.125 C17.559048 9.02651663 8.70419431 8.95219629 0 8 C0 5.36 0 2.72 0 0 Z " fill="#48645E" transform="translate(168,0)"/>
<path d="M0 0 C5.61 0 11.22 0 17 0 C15.74266373 3.14334068 14.4827788 6.28507626 13.21240234 9.4230957 C12.87220062 10.26358963 12.5319989 11.10408356 12.18148804 11.970047 C11.81995636 12.8629393 11.45842468 13.7558316 11.0859375 14.67578125 C10.71143463 15.6009404 10.33693176 16.52609955 9.95108032 17.47929382 C8.75914986 20.42373488 7.56707687 23.36811821 6.375 26.3125 C5.56509475 28.31314723 4.75519881 30.31379823 3.9453125 32.31445312 C1.96364951 37.20967908 -0.01814128 42.10485328 -2 47 C-4.97 46.67 -7.94 46.34 -11 46 C-11 42.04 -11 38.08 -11 34 C-14.96 34 -18.92 34 -23 34 C-23 30.37 -23 26.74 -23 23 C-26.63 23 -30.26 23 -34 23 C-34.09765625 14.50390625 -34.09765625 14.50390625 -34 12 C-33 11 -33 11 -29.85717773 10.88647461 C-28.46597303 10.88663367 -27.07476239 10.89232494 -25.68359375 10.90234375 C-24.95253922 10.9037587 -24.22148468 10.90517365 -23.46827698 10.90663147 C-21.12464368 10.91224592 -18.78110461 10.92480078 -16.4375 10.9375 C-14.85221492 10.94251314 -13.26692834 10.94707637 -11.68164062 10.95117188 C-7.7877239 10.96222003 -3.89387795 10.97949428 0 11 C0 7.37 0 3.74 0 0 Z " fill="#285153" transform="translate(133,13)"/>
<path d="M0 0 C4.62 0 9.24 0 14 0 C14 22.77 14 45.54 14 69 C9.38 69 4.76 69 0 69 C0 46.23 0 23.46 0 0 Z " fill="#1C5356" transform="translate(0,47)"/>
<path d="M0 0 C1.98 0 3.96 0 6 0 C6 37.95 6 75.9 6 115 C3.69 115 1.38 115 -1 115 C-1.02335141 103.10661138 -1.04102973 91.21322838 -1.05181217 79.31982136 C-1.05699177 73.79499301 -1.06399792 68.27018054 -1.07543945 62.74536133 C-1.0864459 57.39608292 -1.09231372 52.04681962 -1.09487724 46.69753075 C-1.09669997 44.67460073 -1.10025761 42.65167137 -1.10573006 40.62874794 C-1.14093188 27.0544137 -0.76819942 13.55304986 0 0 Z " fill="#2D4F4A" transform="translate(202,93)"/>
<path d="M0 0 C2.31 0 4.62 0 7 0 C7 29.7 7 59.4 7 90 C-2.57 90 -12.14 90 -22 90 C-22 89.34 -22 88.68 -22 88 C-21.05898437 87.93941406 -20.11796875 87.87882812 -19.1484375 87.81640625 C-17.90320313 87.73261719 -16.65796875 87.64882813 -15.375 87.5625 C-14.14523438 87.48128906 -12.91546875 87.40007812 -11.6484375 87.31640625 C-8.38467612 87.03336056 -5.22056141 86.58961047 -2 86 C-0.94439828 81.66679907 -0.82919568 77.43152144 -0.79467773 72.99682617 C-0.77982834 71.81067215 -0.77982834 71.81067215 -0.76467896 70.60055542 C-0.73320074 67.99805654 -0.70836086 65.39553943 -0.68359375 62.79296875 C-0.6630124 60.9840702 -0.64201562 59.17517634 -0.62062073 57.36628723 C-0.56552203 52.61361491 -0.5160591 47.86090007 -0.46777344 43.1081543 C-0.41746915 38.25500724 -0.36182975 33.40192166 -0.30664062 28.54882812 C-0.19920837 19.03260465 -0.09773043 9.51632771 0 0 Z " fill="#14393D" transform="translate(201,208)"/>
<path d="M0 0 C10.89 0 21.78 0 33 0 C33 3.96 33 7.92 33 12 C29.04 12 25.08 12 21 12 C21 19.59 21 27.18 21 35 C17.37 35 13.74 35 10 35 C10 27.41 10 19.82 10 12 C6.7 12 3.4 12 0 12 C0 8.04 0 4.08 0 0 Z " fill="#1D4F52" transform="translate(66,242)"/>
<path d="M0 0 C4.62 0 9.24 0 14 0 C14 11.55 14 23.1 14 35 C11.69 35 9.38 35 7 35 C7 41.93 7 48.86 7 56 C4.69 56 2.38 56 0 56 C0 37.52 0 19.04 0 0 Z " fill="#114F4F" transform="translate(0,242)"/>
<path d="M0 0 C0.33 0 0.66 0 1 0 C1 87.45 1 174.9 1 265 C0.67 265 0.34 265 0 265 C0 186.79 0 108.58 0 28 C-4.62 28 -9.24 28 -14 28 C-14 20.41 -14 12.82 -14 5 C-9.38 5 -4.76 5 0 5 C0 3.35 0 1.7 0 0 Z " fill="#638B8E" transform="translate(14,19)"/>
<path d="M0 0 C7.59 0 15.18 0 23 0 C23 7.59 23 15.18 23 23 C15.41 23 7.82 23 0 23 C0 15.41 0 7.82 0 0 Z " fill="#284B4D" transform="translate(76,185)"/>
<path d="M0 0 C3.63 0 7.26 0 11 0 C11 3.63 11 7.26 11 11 C18.59 11 26.18 11 34 11 C34 14.3 34 17.6 34 21 C22.78 21 11.56 21 0 21 C0 14.07 0 7.14 0 0 Z " fill="#205E60" transform="translate(76,277)"/>
<path d="M0 0 C21.12 0 42.24 0 64 0 C64 0.33 64 0.66 64 1 C49.15 1 34.3 1 19 1 C19 4.96 19 8.92 19 13 C17.0625 16.4375 17.0625 16.4375 15 19 C14.67 20.65 14.34 22.3 14 24 C9.38 24 4.76 24 0 24 C0 16.08 0 8.16 0 0 Z " fill="#255F65" transform="translate(0,0)"/>
<path d="M0 0 C13.2 0 26.4 0 40 0 C40 0.33 40 0.66 40 1 C38.02 1 36.04 1 34 1 C34 8.59 34 16.18 34 24 C32.02 24 30.04 24 28 24 C27.67 24.99 27.34 25.98 27 27 C26.97421875 26.40832031 26.9484375 25.81664063 26.921875 25.20703125 C26.54715879 19.9865532 26.07696947 16.64781479 22 13 C15.39467705 9.03680623 7.5183026 8.82246554 0 8 C0 5.36 0 2.72 0 0 Z " fill="#4F7470" transform="translate(168,0)"/>
<path d="M0 0 C4.62 0 9.24 0 14 0 C14 7.59 14 15.18 14 23 C11.69 23 9.38 23 7 23 C7 26.96 7 30.92 7 35 C4.69 35 2.38 35 0 35 C0 23.45 0 11.9 0 0 Z " fill="#103E42" transform="translate(0,116)"/>
<path d="M0 0 C4.62 0 9.24 0 14 0 C14 15.18 14 30.36 14 46 C11.69 46 9.38 46 7 46 C7 34.78 7 23.56 7 12 C4.69 12 2.38 12 0 12 C0 8.04 0 4.08 0 0 Z " fill="#235E60" transform="translate(0,47)"/>
<path d="M0 0 C4.62 0 9.24 0 14 0 C14 7.59 14 15.18 14 23 C9.38 23 4.76 23 0 23 C0 15.41 0 7.82 0 0 Z " fill="#265E5F" transform="translate(0,219)"/>
<path d="M0 0 C2.31 0 4.62 0 7 0 C7 15.18 7 30.36 7 46 C4.69 46 2.38 46 0 46 C0 30.82 0 15.64 0 0 Z " fill="#385A59" transform="translate(201,162)"/>
<path d="M0 0 C2.31 0 4.62 0 7 0 C7 10.89 7 21.78 7 33 C-2.57 33 -12.14 33 -22 33 C-22 32.34 -22 31.68 -22 31 C-21.05898437 30.93941406 -20.11796875 30.87882812 -19.1484375 30.81640625 C-17.28058594 30.69072266 -17.28058594 30.69072266 -15.375 30.5625 C-13.53035156 30.44068359 -13.53035156 30.44068359 -11.6484375 30.31640625 C-8.38467612 30.03336056 -5.22056141 29.58961047 -2 29 C-1.19070518 25.39129392 -0.82185917 21.95538062 -0.68359375 18.26171875 C-0.64169922 17.19501953 -0.59980469 16.12832031 -0.55664062 15.02929688 C-0.51732422 13.92650391 -0.47800781 12.82371094 -0.4375 11.6875 C-0.39431641 10.56537109 -0.35113281 9.44324219 -0.30664062 8.28710938 C-0.20085213 5.52485431 -0.09876328 2.7625137 0 0 Z " fill="#07393A" transform="translate(201,265)"/>
<path d="M0 0 C6.03821617 4.72078719 16.30838924 4.8683065 23.71875 5.34375 C23.71875 6.00375 23.71875 6.66375 23.71875 7.34375 C8.53875 7.34375 -6.64125 7.34375 -22.28125 7.34375 C-22.28125 4.04375 -22.28125 0.74375 -22.28125 -2.65625 C-18.02019417 -3.14035196 -13.7688797 -3.55211443 -9.484375 -3.75390625 C-8.7718457 -3.79008057 -8.05931641 -3.82625488 -7.32519531 -3.86352539 C-4.20600714 -3.5472102 -2.22787674 -2.13307347 0 0 Z " fill="#235E5F" transform="translate(155.28125,290.65625)"/>
<path d="M0 0 C0.33 0 0.66 0 1 0 C1 7.26 1 14.52 1 22 C-0.32 22 -1.64 22 -3 22 C-3 25.96 -3 29.92 -3 34 C-3.91523438 33.98839844 -4.83046875 33.97679687 -5.7734375 33.96484375 C-6.96195313 33.95582031 -8.15046875 33.94679687 -9.375 33.9375 C-10.55835938 33.92589844 -11.74171875 33.91429687 -12.9609375 33.90234375 C-15.91921521 33.78533407 -15.91921521 33.78533407 -18 35 C-16.63825799 31.44988667 -15.08164006 28.09539786 -13.3203125 24.7265625 C-12.80339844 23.7365625 -12.28648437 22.7465625 -11.75390625 21.7265625 C-11.21636719 20.70304687 -10.67882812 19.67953125 -10.125 18.625 C-9.59519531 17.60921875 -9.06539062 16.5934375 -8.51953125 15.546875 C-5.77581638 10.30454138 -2.98053665 5.11154837 0 0 Z " fill="#385455" transform="translate(148,117)"/>
<path d="M0 0 C7.59 0 15.18 0 23 0 C23 3.63 23 7.26 23 11 C15.41 11 7.82 11 0 11 C0 7.37 0 3.74 0 0 Z " fill="#165051" transform="translate(87,277)"/>
<path d="M0 0 C7.59 0 15.18 0 23 0 C23 3.63 23 7.26 23 11 C15.41 11 7.82 11 0 11 C0 7.37 0 3.74 0 0 Z " fill="#386C71" transform="translate(76,13)"/>
<path d="M0 0 C7.59 0 15.18 0 23 0 C23 3.3 23 6.6 23 10 C15.41 10 7.82 10 0 10 C0 6.7 0 3.4 0 0 Z " fill="#155052" transform="translate(110,288)"/>
<path d="M0 0 C2.31 0 4.62 0 7 0 C7.16435547 0.90492188 7.16435547 0.90492188 7.33203125 1.828125 C8.20440963 6.77650658 8.20440963 6.77650658 10.625 11.0625 C12.84937111 14.1968411 12.18839681 17.23206381 12 21 C8.04 21 4.08 21 0 21 C0 14.07 0 7.14 0 0 Z " fill="#1F5D5D" transform="translate(7,277)"/>
<path d="M0 0 C5.28 0 10.56 0 16 0 C16.33 3.63 16.66 7.26 17 11 C11.39 11 5.78 11 0 11 C0 7.37 0 3.74 0 0 Z " fill="#14484A" transform="translate(133,277)"/>
<path d="M0 0 C5.61 0 11.22 0 17 0 C16.01 3.63 15.02 7.26 14 11 C9.38 11 4.76 11 0 11 C0 7.37 0 3.74 0 0 Z " fill="#1D5A5F" transform="translate(0,13)"/>
<path d="M0 0 C2.31 0 4.62 0 7 0 C7 7.59 7 15.18 7 23 C4.69 23 2.38 23 0 23 C0 15.41 0 7.82 0 0 Z " fill="#0E3A3F" transform="translate(0,128)"/>
<path d="M0 0 C4.62 0 9.24 0 14 0 C14 3.63 14 7.26 14 11 C9.38 11 4.76 11 0 11 C0 7.37 0 3.74 0 0 Z " fill="#2D6867" transform="translate(0,231)"/>
<path d="M0 0 C4.62 0 9.24 0 14 0 C14 3.63 14 7.26 14 11 C9.38 11 4.76 11 0 11 C0 7.37 0 3.74 0 0 Z " fill="#1D4E50" transform="translate(0,105)"/>
<path d="M0 0 C4.62 0 9.24 0 14 0 C14 3.63 14 7.26 14 11 C9.38 11 4.76 11 0 11 C0 7.37 0 3.74 0 0 Z " fill="#327072" transform="translate(0,36)"/>
<path d="M0 0 C0.33 0 0.66 0 1 0 C1 1.98 1 3.96 1 6 C4.63 6 8.26 6 12 6 C12 9.96 12 13.92 12 18 C8.7 18 5.4 18 2 18 C2 20.97 2 23.94 2 27 C1.67 27 1.34 27 1 27 C0.67 18.09 0.34 9.18 0 0 Z " fill="#5A716B" transform="translate(196,41)"/>
<path d="M0 0 C3.96 0 7.92 0 12 0 C12 3.96 12 7.92 12 12 C8.04 12 4.08 12 0 12 C0 8.04 0 4.08 0 0 Z " fill="#326469" transform="translate(110,1)"/>
<path d="M0 0 C0.33 0 0.66 0 1 0 C1 7.26 1 14.52 1 22 C-2.63 22 -6.26 22 -10 22 C-9.2215957 18.10797848 -8.71895474 16.08708551 -6.93359375 12.79296875 C-6.3293457 11.66665039 -6.3293457 11.66665039 -5.71289062 10.51757812 C-5.29201172 9.74865234 -4.87113281 8.97972656 -4.4375 8.1875 C-4.01275391 7.39923828 -3.58800781 6.61097656 -3.15039062 5.79882812 C-2.10603446 3.8626622 -1.0557923 1.92994633 0 0 Z " fill="#314E4F" transform="translate(148,117)"/>
<path d="M0 0 C1.98 0 3.96 0 6 0 C6 7.59 6 15.18 6 23 C4.02 23 2.04 23 0 23 C0 15.41 0 7.82 0 0 Z " fill="#2C4843" transform="translate(202,93)"/>
<path d="M0 0 C2.31 0 4.62 0 7 0 C7 3.3 7 6.6 7 10 C-2.57 10 -12.14 10 -22 10 C-22 9.34 -22 8.68 -22 8 C-21.05898437 7.93941406 -20.11796875 7.87882812 -19.1484375 7.81640625 C-17.28058594 7.69072266 -17.28058594 7.69072266 -15.375 7.5625 C-13.53035156 7.44068359 -13.53035156 7.44068359 -11.6484375 7.31640625 C-8.38467612 7.03336056 -5.22056141 6.58961047 -2 6 C-1.34 4.02 -0.68 2.04 0 0 Z " fill="#114E4D" transform="translate(201,288)"/>
<path d="M0 0 C3.3 0 6.6 0 10 0 C10 3.63 10 7.26 10 11 C6.7 11 3.4 11 0 11 C0 7.37 0 3.74 0 0 Z " fill="#2C6264" transform="translate(66,254)"/>
<path d="M0 0 C3.3 0 6.6 0 10 0 C10 3.63 10 7.26 10 11 C6.7 11 3.4 11 0 11 C0 7.37 0 3.74 0 0 Z " fill="#415C55" transform="translate(198,59)"/>
<path d="M0 0 C3.63 0 7.26 0 11 0 C11 3.63 11 7.26 11 11 C9.02 11 7.04 11 5 11 C4.67 11.99 4.34 12.98 4 14 C3.96261719 13.40832031 3.92523438 12.81664062 3.88671875 12.20703125 C3.48623099 7.39332549 2.9614965 3.99158223 0 0 Z " fill="#587974" transform="translate(191,13)"/>
<path d="M0 0 C2.31 0 4.62 0 7 0 C7 3.63 7 7.26 7 11 C5.02 11 3.04 11 1 11 C1 14.96 1 18.92 1 23 C0.67 23 0.34 23 0 23 C0 15.41 0 7.82 0 0 Z " fill="#214344" transform="translate(201,208)"/>
<path d="M0 0 C3.63 0 7.26 0 11 0 C11 2.64 11 5.28 11 8 C7.37 8 3.74 8 0 8 C0 5.36 0 2.72 0 0 Z " fill="#436C68" transform="translate(168,0)"/>
<path d="M0 0 C2.31 0 4.62 0 7 0 C7 3.96 7 7.92 7 12 C4.69 12 2.38 12 0 12 C0 8.04 0 4.08 0 0 Z " fill="#1B5555" transform="translate(0,219)"/>
<path d="M0 0 C2.31 0 4.62 0 7 0 C7 3.96 7 7.92 7 12 C4.69 12 2.38 12 0 12 C0 8.04 0 4.08 0 0 Z " fill="#1D5253" transform="translate(0,196)"/>
<path d="M0 0 C2.31 0 4.62 0 7 0 C7 3.63 7 7.26 7 11 C4.69 11 2.38 11 0 11 C0 7.37 0 3.74 0 0 Z " fill="#084747" transform="translate(0,254)"/>
<path d="M0 0 C2.31 0 4.62 0 7 0 C7 3.63 7 7.26 7 11 C4.69 11 2.38 11 0 11 C0 7.37 0 3.74 0 0 Z " fill="#2D5250" transform="translate(201,162)"/>
<path d="M0 0 C2.31 0 4.62 0 7 0 C7 3.63 7 7.26 7 11 C4.69 11 2.38 11 0 11 C0 7.37 0 3.74 0 0 Z " fill="#073539" transform="translate(0,128)"/>
<path d="M0 0 C1.98 0 3.96 0 6 0 C6 3.96 6 7.92 6 12 C4.02 12 2.04 12 0 12 C0 8.04 0 4.08 0 0 Z " fill="#2E5150" transform="translate(202,196)"/>
<path d="M0 0 C1.98 0 3.96 0 6 0 C6 3.96 6 7.92 6 12 C4.02 12 2.04 12 0 12 C0 8.04 0 4.08 0 0 Z " fill="#516C64" transform="translate(202,47)"/>
<path d="M0 0 C1.98 0 3.96 0 6 0 C6 3.96 6 7.92 6 12 C4.02 12 2.04 12 0 12 C0 8.04 0 4.08 0 0 Z " fill="#4D6C66" transform="translate(196,24)"/>
<path d="M0 0 C1.98 0 3.96 0 6 0 C6 3.63 6 7.26 6 11 C4.02 11 2.04 11 0 11 C0 7.37 0 3.74 0 0 Z " fill="#203F38" transform="translate(202,105)"/>
<path d="M0 0 C2.31 0 4.62 0 7 0 C5.25192871 5.46737191 3.34205919 10.75824848 1 16 C0.67 16 0.34 16 0 16 C0 10.72 0 5.44 0 0 Z " fill="#365A5A" transform="translate(133,36)"/>
<path d="M0 0 C1.32 0 2.64 0 4 0 C4 3.63 4 7.26 4 11 C2.68 11 1.36 11 0 11 C0 7.37 0 3.74 0 0 Z " fill="#48615B" transform="translate(198,59)"/>
<path d="M0 0 C1.32 0 2.64 0 4 0 C4 3.3 4 6.6 4 10 C1.7448078 7.7448078 1.02276532 5.9952413 0 3 C0 2.01 0 1.02 0 0 Z " fill="#295A5D" transform="translate(72,24)"/>
</svg>
