<?xml version="1.0" encoding="UTF-8"?>
<svg version="1.1" xmlns="http://www.w3.org/2000/svg" width="514" height="514">
<path d="M0 0 C1.29035156 0.09796875 2.58070313 0.1959375 3.91015625 0.296875 C4.62034912 0.3491626 5.33054199 0.4014502 6.06225586 0.45532227 C12.17849719 0.92794998 18.27900751 1.56223452 24.37475586 2.24731445 C28.97518347 2.75857646 33.57061384 3.18062573 38.1875 3.515625 C39.23220459 3.59433838 40.27690918 3.67305176 41.35327148 3.75415039 C43.40016048 3.90521999 45.44788831 4.04540083 47.49633789 4.17358398 C48.42696045 4.24391846 49.35758301 4.31425293 50.31640625 4.38671875 C51.14333984 4.44206787 51.97027344 4.49741699 52.82226562 4.55444336 C55.50337325 5.16840726 56.24251609 5.92528369 57.97265625 8.046875 C58.83990479 10.41098022 58.83990479 10.41098022 59.54394531 13.25927734 C59.81622955 14.34049362 60.08851379 15.4217099 60.36904907 16.53569031 C60.65589569 17.72274063 60.94274231 18.90979095 61.23828125 20.1328125 C61.54825043 21.38242264 61.8582196 22.63203278 62.17758179 23.91950989 C63.02919127 27.36018305 63.86544763 30.80441459 64.69745636 34.24987411 C65.22526451 36.43266165 65.75654981 38.61457644 66.28875732 40.79629517 C79.35609585 94.41688349 90.44549293 148.45519494 101.10888672 202.59716797 C102.94623846 211.92596536 104.79969884 221.25153809 106.65393257 230.57699203 C107.9122073 236.90762039 109.16776008 243.23878904 110.42337036 249.56994629 C111.10935267 253.02883894 111.79613831 256.48757048 112.48361206 259.94616699 C116.10557177 278.17528239 119.62555343 296.41514039 122.91520691 314.70729065 C124.74937336 324.89639818 126.69961581 335.05674904 128.75881958 345.20263672 C129.31375351 347.93782682 129.86419208 350.67389487 130.41381836 353.41015625 C132.23375154 362.46379689 134.0670967 371.5146976 135.90473938 380.5647583 C136.74823204 384.72351041 137.58807412 388.88299515 138.42733765 393.04260254 C139.02439676 395.99369396 139.62698813 398.94362087 140.22973633 401.89355469 C140.59355042 403.69460316 140.95709065 405.49570699 141.3203125 407.296875 C141.48859558 408.11246887 141.65687866 408.92806274 141.83026123 409.76837158 C143.43123776 417.76942261 143.43123776 417.76942261 142.97265625 421.046875 C139.39670255 423.43084413 136.45985327 423.58150658 132.3046875 423.8984375 C131.55104416 423.96219574 130.79740082 424.02595398 130.0209198 424.09164429 C128.42500687 424.22499175 126.82874097 424.35417073 125.23217773 424.47949219 C122.81083619 424.66985606 120.39081788 424.87280885 117.97070312 425.078125 C116.41542618 425.20647772 114.86008913 425.33410461 113.3046875 425.4609375 C112.58980667 425.52028473 111.87492584 425.57963196 111.13838196 425.64077759 C106.40254459 426.00847616 101.7228702 426.09687374 96.97265625 426.046875 C95.25965132 421.4048179 94.36953671 416.84572431 93.703125 411.96484375 C93.45886621 410.26700136 93.21395508 408.56925273 92.96850586 406.87158203 C92.77295609 405.50335297 92.77295609 405.50335297 92.57345581 404.10748291 C89.32760967 381.54354358 85.42683207 359.10838027 81.41015625 336.671875 C81.13428546 335.12804559 80.8584368 333.58421222 80.58261108 332.04037476 C74.96260472 300.61104502 69.10935767 269.23038212 62.84765625 237.921875 C62.70950626 237.23112507 62.57135628 236.54037514 62.42901993 235.82869339 C52.36146561 185.53705984 40.63862838 135.73978883 27.97265625 86.046875 C24.8063711 93.4796664 21.83980276 100.93541947 19.1875 108.56640625 C18.68098907 110.01280235 18.68098907 110.01280235 18.16424561 111.48841858 C17.07405993 114.61019332 15.99101615 117.7343598 14.91015625 120.859375 C14.34816025 122.48181122 14.34816025 122.48181122 13.77481079 124.13702393 C2.65664488 156.2977892 -6.90275754 188.79443615 -15.95606995 221.58776855 C-19.12056756 233.02926413 -22.44930022 244.42160922 -25.79101562 255.8125 C-26.96399051 259.82068432 -28.12139289 263.83329182 -29.27758789 267.84634399 C-30.34371906 271.54410869 -31.41462081 275.24048378 -32.48608398 278.93670654 C-33.00509589 280.73078867 -33.52225032 282.52540941 -34.03735352 284.32061768 C-42.63042901 314.25005362 -42.63042901 314.25005362 -47.02734375 317.046875 C-49.74145577 317.31197167 -52.1974814 317.39212774 -54.90625 317.3203125 C-55.69802139 317.30914398 -56.48979279 317.29797546 -57.30555725 317.28646851 C-65.99021769 317.11592054 -74.65167871 316.54407915 -83.31030273 315.875 C-86.01408655 315.66810695 -88.71874867 315.47817803 -91.42382812 315.2890625 C-93.15502304 315.15985678 -94.88614629 315.02968645 -96.6171875 314.8984375 C-97.42018784 314.84313873 -98.22318817 314.78783997 -99.05052185 314.73086548 C-102.78972046 314.42915729 -104.84702403 314.16708815 -108.02734375 312.046875 C-108.69995117 310.03271484 -108.69995117 310.03271484 -109.1328125 307.5078125 C-109.30707764 306.55205322 -109.48134277 305.59629395 -109.66088867 304.61157227 C-109.84369385 303.55897217 -110.02649902 302.50637207 -110.21484375 301.421875 C-116.1354299 269.89205839 -125.40928615 239.24617813 -134.85546875 208.62890625 C-138.91014837 195.47947929 -142.86763877 182.30257066 -146.77734375 169.109375 C-147.1178476 167.96174683 -147.45835144 166.81411865 -147.80917358 165.63171387 C-153.85917331 145.22086325 -159.65530246 124.74657298 -165.30770874 104.22251892 C-166.80397599 98.80697658 -168.36332042 93.41358598 -170.02734375 88.046875 C-170.12644043 88.62276367 -170.22553711 89.19865234 -170.32763672 89.79199219 C-176.88463316 127.65592963 -183.99996347 165.3819656 -193.22108459 202.69433594 C-194.59496049 208.25679608 -195.93011098 213.82706987 -197.234375 219.40625 C-197.41321228 220.17104675 -197.59204956 220.93584351 -197.77630615 221.72381592 C-197.95502258 222.48816956 -198.13373901 223.25252319 -198.31787109 224.04003906 C-206.30397994 258.19268978 -214.77968604 292.21058023 -224.32289124 325.96243286 C-226.29900196 332.97079827 -228.16803814 340.00670397 -230.02734375 347.046875 C-236.67371716 372.14450076 -243.64622958 397.15516608 -251.02734375 422.046875 C-259.91328426 422.41531408 -268.45593804 421.668344 -277.27734375 420.609375 C-278.97491821 420.407677 -278.97491821 420.407677 -280.70678711 420.2019043 C-288.8951608 419.17905795 -288.8951608 419.17905795 -290.02734375 418.046875 C-289.87890958 408.55094377 -288.24120835 399.13637649 -286.65234375 389.796875 C-286.52851318 389.05953125 -286.40468262 388.3221875 -286.27709961 387.5625 C-283.60055504 371.67978127 -280.57341765 355.86213849 -277.52734375 340.046875 C-277.30040833 338.8657312 -277.0734729 337.6845874 -276.83966064 336.46765137 C-271.7255492 309.91373529 -265.97692275 283.52448092 -259.85018921 257.18701172 C-258.3656502 250.80423917 -256.89139055 244.41908636 -255.41581535 238.03423691 C-254.91532682 235.86875165 -254.41466296 233.703307 -253.91395569 231.53787231 C-237.54184492 160.72781164 -221.18604392 89.47958534 -213.49609375 17.09375 C-213.407229 16.26383545 -213.31836426 15.4339209 -213.22680664 14.57885742 C-213.05504386 12.95967706 -212.88741618 11.34005153 -212.72436523 9.7199707 C-212.13738352 4.15691477 -212.13738352 4.15691477 -211.02734375 3.046875 C-198.55561076 0.75614853 -185.84057387 2.01091224 -173.33984375 3.359375 C-171.66668091 3.53581543 -171.66668091 3.53581543 -169.9597168 3.71582031 C-149.05902574 6.12028378 -149.05902574 6.12028378 -144.75708008 10.19970703 C-136.61403173 20.955197 -133.13134972 35.21337152 -129.04589844 47.88769531 C-128.35550215 50.0290491 -127.66069996 52.16898647 -126.96191406 54.30761719 C-111.41546536 102.00973541 -99.22919982 150.88902057 -87.15203857 199.56723022 C-83.62598025 213.7786476 -79.92575116 227.93235858 -76.02734375 242.046875 C-73.10676435 238.66352399 -71.78710504 235.0210383 -70.42578125 230.8359375 C-70.18837219 230.12529144 -69.95096313 229.41464539 -69.70635986 228.6824646 C-68.9297995 226.34833285 -68.16528365 224.01049155 -67.40234375 221.671875 C-66.85987028 220.02213311 -66.31738972 218.37239356 -65.77490234 216.72265625 C-53.98082497 180.7227332 -44.35882746 144.15032178 -34.73046875 107.5234375 C-29.20943511 86.53658891 -23.56300231 65.59774737 -17.58984375 44.734375 C-17.30238281 43.7299234 -17.01492188 42.7254718 -16.71875 41.69058228 C-15.10241307 36.05219898 -13.47230983 30.41801149 -11.82696533 24.7880249 C-11.27966311 22.91184064 -10.73498917 21.03488823 -10.19256592 19.1572876 C-9.38215746 16.35425346 -8.5632516 13.55383499 -7.7421875 10.75390625 C-7.37596031 9.47902596 -7.37596031 9.47902596 -7.00233459 8.1783905 C-4.6037192 0.07128339 -4.6037192 0.07128339 0 0 Z " fill="#E0E0E0" transform="translate(331.02734375,53.953125)"/>
<path d="M0 0 C2.29903669 4.10542266 4.35523153 8.69099505 3.625 13.4375 C3.41875 13.953125 3.2125 14.46875 3 15 C2.505 13.515 2.505 13.515 2 12 C1.90090332 12.57588867 1.80180664 13.15177734 1.69970703 13.74511719 C-4.85728941 51.60905463 -11.97261972 89.3350906 -21.19374084 126.64746094 C-22.56761674 132.20992108 -23.90276723 137.78019487 -25.20703125 143.359375 C-25.38586853 144.12417175 -25.56470581 144.88896851 -25.7489624 145.67694092 C-25.92767883 146.44129456 -26.10639526 147.20564819 -26.29052734 147.99316406 C-34.27663619 182.14581478 -42.75234229 216.16370523 -52.29554749 249.91555786 C-54.27165821 256.92392327 -56.14069439 263.95982897 -58 271 C-64.64637341 296.09762576 -71.61888583 321.10829108 -79 346 C-87.87196308 346.36882252 -96.43813227 345.64783397 -105.25 344.625 C-106.38171631 344.49891357 -107.51343262 344.37282715 -108.67944336 344.24291992 C-109.7391333 344.11377197 -110.79882324 343.98462402 -111.890625 343.8515625 C-112.85000977 343.73635254 -113.80939453 343.62114258 -114.79785156 343.50244141 C-115.52456055 343.33663574 -116.25126953 343.17083008 -117 343 C-117.33 342.34 -117.66 341.68 -118 341 C-110.07704577 340.83696693 -102.26831303 341.34882367 -94.375 342 C-93.18003906 342.09539062 -91.98507813 342.19078125 -90.75390625 342.2890625 C-87.8356352 342.52252418 -84.91770424 342.75957554 -82 343 C-77.99982184 329.52397492 -74.16394436 316.01817172 -70.55639648 302.43164062 C-68.82617203 295.95406745 -66.9813161 289.52978091 -65 283.125 C-62.17722879 273.96820559 -59.88282857 264.70122572 -57.60107422 255.39697266 C-55.91393518 248.55124173 -54.12309521 241.76108485 -52.125 235 C-49.04547567 224.54713016 -46.45544973 213.97880628 -43.84191895 203.40228271 C-39.71123867 186.68885576 -39.71123867 186.68885576 -37.375 178.625 C-34.81251486 169.73296699 -32.79227958 160.71476058 -30.72387695 151.69750977 C-29.04776412 144.40510617 -27.29016115 137.1408104 -25.42089844 129.89501953 C-21.14544416 113.29662624 -17.72580352 96.55687336 -14.36044312 79.75505066 C-13.24633332 74.19782905 -12.09436996 68.6495775 -10.91772461 63.10522461 C-6.94397304 44.35854264 -3.00606815 25.61425724 -1.359375 6.5 C-1 3 -1 3 0 0 Z " fill="#1D1D1E" transform="translate(159,130)"/>
<path d="M0 0 C2.14409985 4.10764392 2.53970694 7.39706937 3 12 C2.01 10.515 2.01 10.515 1 9 C-4.04371159 20.34721133 -8.00673953 32.08636127 -12.0625 43.8125 C-12.437164 44.89412415 -12.811828 45.97574829 -13.19784546 47.09014893 C-24.31601137 79.2509142 -33.87541379 111.74756115 -42.9287262 144.54089355 C-46.09322381 155.98238913 -49.42195647 167.37473422 -52.76367188 178.765625 C-53.93664676 182.77380932 -55.09404914 186.78641682 -56.25024414 190.79946899 C-57.31637531 194.49723369 -58.38727706 198.19360878 -59.45874023 201.88983154 C-59.97775214 203.68391367 -60.49490657 205.47853441 -61.01000977 207.27374268 C-69.60308526 237.20317862 -69.60308526 237.20317862 -74 240 C-76.71411202 240.26509667 -79.17013765 240.34525274 -81.87890625 240.2734375 C-82.67067764 240.26226898 -83.46244904 240.25110046 -84.2782135 240.23959351 C-92.96287394 240.06904554 -101.62433496 239.49720415 -110.28295898 238.828125 C-112.9867428 238.62123195 -115.69140492 238.43130303 -118.39648438 238.2421875 C-120.12767929 238.11298178 -121.85880254 237.98281145 -123.58984375 237.8515625 C-124.39284409 237.79626373 -125.19584442 237.74096497 -126.0231781 237.68399048 C-129.76237671 237.38228229 -131.81968028 237.12021315 -135 235 C-135.79956055 232.55737305 -135.79956055 232.55737305 -136.38671875 229.51171875 C-136.60263672 228.41279297 -136.81855469 227.31386719 -137.04101562 226.18164062 C-137.25435547 225.02857422 -137.46769531 223.87550781 -137.6875 222.6875 C-137.91244141 221.54603516 -138.13738281 220.40457031 -138.36914062 219.22851562 C-139.29377643 214.41984733 -140.14230079 209.91190824 -140 205 C-137.38213507 208.92679739 -136.81239675 212.67411513 -135.875 217.25 C-135.69324219 218.08402344 -135.51148438 218.91804687 -135.32421875 219.77734375 C-134.31255766 224.6226679 -133.79941383 229.05220778 -134 234 C-133.42636719 233.97679687 -132.85273438 233.95359375 -132.26171875 233.9296875 C-126.3288199 233.80364716 -120.57228985 234.22873403 -114.6875 234.9375 C-101.19061399 236.53399686 -87.57492133 236.66755295 -74 237 C-73.88317871 236.44022461 -73.76635742 235.88044922 -73.64599609 235.30371094 C-72.54879883 230.18919965 -71.23470541 225.22493882 -69.625 220.25 C-69.17811058 218.84513948 -68.7314993 217.44019046 -68.28515625 216.03515625 C-68.06617676 215.34953613 -67.84719727 214.66391602 -67.62158203 213.95751953 C-66.74820177 211.20702349 -65.9049818 208.44759727 -65.0625 205.6875 C-63.91828182 201.94910295 -62.7532567 198.21861682 -61.55859375 194.49609375 C-58.8643724 186.08688324 -56.33865055 177.68907641 -54.12890625 169.13671875 C-52.73635521 163.90056964 -51.10101857 158.73779777 -49.5 153.5625 C-47.49594028 147.07276437 -45.58469717 140.60518174 -44 134 C-42.21507769 126.58687586 -40.02516231 119.33048932 -37.77514648 112.04638672 C-35.62856733 105.09312715 -33.57443236 98.11828643 -31.5625 91.125 C-26.58193145 73.90811533 -21.17367928 56.82756331 -15 40 C-14.2707139 37.91670847 -13.54155391 35.8333728 -12.8125 33.75 C-8.77351674 22.41478892 -4.34691466 11.2197221 0 0 Z " fill="#202021" transform="translate(358,131)"/>
<path d="M0 0 C3.54982383 2.36654922 3.58539717 3.1008866 4.57128906 7.09887695 C4.8435733 8.18016876 5.11585754 9.26146057 5.39639282 10.3755188 C5.68323944 11.56773041 5.97008606 12.75994202 6.265625 13.98828125 C6.57559418 15.23930634 6.88556335 16.49033142 7.20492554 17.77926636 C8.05755192 21.22794427 8.89338728 24.6804882 9.72480011 28.13433456 C10.25224013 30.32179052 10.78360714 32.50825776 11.31610107 34.69448853 C24.37026308 88.33639174 35.46941234 142.39093328 46.13623047 196.55029297 C47.97358221 205.87909036 49.82704259 215.20466309 51.68127632 224.53011703 C52.93955105 230.86074539 54.19510383 237.19191404 55.45071411 243.52307129 C56.13669642 246.98196394 56.82348206 250.44069548 57.51095581 253.89929199 C61.13291552 272.12840739 64.65289718 290.36826539 67.94255066 308.66041565 C69.77671711 318.84952318 71.72695956 329.00987404 73.78616333 339.15576172 C74.34109726 341.89095182 74.89153583 344.62701987 75.44116211 347.36328125 C77.26109529 356.41692189 79.09444045 365.4678226 80.93208313 374.5178833 C81.77557579 378.67663541 82.61541787 382.83612015 83.4546814 386.99572754 C84.05174051 389.94681896 84.65433188 392.89674587 85.25708008 395.84667969 C85.62089417 397.64772816 85.9844344 399.44883199 86.34765625 401.25 C86.51593933 402.06559387 86.68422241 402.88118774 86.85760498 403.72149658 C88.45858151 411.72254761 88.45858151 411.72254761 88 415 C84.4240463 417.38396913 81.48719702 417.53463158 77.33203125 417.8515625 C76.57838791 417.91532074 75.82474457 417.97907898 75.04826355 418.04476929 C73.45235062 418.17811675 71.85608472 418.30729573 70.25952148 418.43261719 C67.83817994 418.62298106 65.41816163 418.82593385 62.99804688 419.03125 C61.44276993 419.15960272 59.88743288 419.28722961 58.33203125 419.4140625 C57.61715042 419.47340973 56.90226959 419.53275696 56.16572571 419.59390259 C51.42988834 419.96160116 46.75021395 420.04999874 42 420 C41.67 418.35 41.34 416.7 41 415 C41.495 416.485 41.495 416.485 42 418 C42.65782471 417.91435791 43.31564941 417.82871582 43.9934082 417.74047852 C57.99372884 415.93732391 71.88970975 414.48772159 86 414 C85.84442627 413.28271729 85.68885254 412.56543457 85.52856445 411.82641602 C80.73205884 389.67448092 76.16402588 367.49582732 72.08349609 345.19970703 C70.15598755 334.7215523 68.11299022 324.26716101 66.0625 313.8125 C63.66257868 301.5707392 61.28670256 289.32596611 59 277.0625 C54.24308859 251.56089341 49.44560158 226.0663701 44.375 200.625 C44.12242432 199.35293701 43.86984863 198.08087402 43.60961914 196.77026367 C41.62274783 186.86725567 39.50761546 176.99305005 37.38388062 167.11857605 C35.56709142 158.66566296 33.774207 150.20804336 32 141.74609375 C31.75271149 140.56748779 31.50542297 139.38888184 31.25064087 138.17456055 C30.24932271 133.40053999 29.24867189 128.62638153 28.25 123.85180664 C25.06096893 108.61151852 21.78674769 93.39413688 18.38232422 78.20043945 C17.15035464 72.69714806 15.95124207 67.18707983 14.75842285 61.67518616 C12.08395834 49.32434256 9.04050866 37.09292406 5.80322266 24.87988281 C3.62527623 16.6258053 1.71511489 8.36228762 0 0 Z " fill="#1D1D1E" transform="translate(386,60)"/>
<path d="M0 0 C9.26737469 8.39770903 12.25647399 24.08843357 15.89941406 35.54638672 C16.99860344 38.99561763 18.11961591 42.43722359 19.2421875 45.87890625 C34.5370666 93.29526057 46.5889426 141.87108338 58.55883789 190.21826172 C60.32066696 197.32870818 62.09565714 204.43192513 63.9921875 211.5078125 C64.28311279 212.59425049 64.57403809 213.68068848 64.8737793 214.80004883 C65.39624638 216.73425864 65.92575759 218.66658719 66.46411133 220.59643555 C66.68607178 221.41668213 66.90803223 222.23692871 67.13671875 223.08203125 C67.32967529 223.77530518 67.52263184 224.4685791 67.72143555 225.18286133 C68 227 68 227 67 230 C64.42469269 223.58847823 62.67883179 217.14896369 61.0625 210.4375 C60.53476047 208.28493385 60.0061171 206.13258909 59.4765625 203.98046875 C59.22293945 202.94712402 58.96931641 201.9137793 58.70800781 200.84912109 C57.82691178 197.30346913 56.89190081 193.77662738 55.9375 190.25 C54.38137549 184.49685916 52.92913744 178.72307978 51.5 172.9375 C50.11611737 167.34348087 48.68593932 161.78047169 47.0625 156.25 C45.23966248 150.02014164 43.675054 143.74032592 42.125 137.4375 C40.01057703 128.8576296 37.72604956 120.35160922 35.25048828 111.86938477 C33.37221645 105.40175063 31.66510015 98.90043641 30 92.375 C27.98466022 84.51373159 25.7510722 76.76932241 23.24560547 69.05102539 C21.39775259 63.34040553 19.73595283 57.59396458 18.125 51.8125 C13.57816876 35.68684726 8.77340409 19.64603406 1.25 4.6328125 C0 2 0 2 0 0 Z " fill="#282828" transform="translate(186,66)"/>
<path d="M0 0 C3.54982383 2.36654922 3.58539717 3.1008866 4.57128906 7.09887695 C4.84354309 8.18002274 5.11579712 9.26116852 5.39630127 10.37507629 C5.6831781 11.56743393 5.97005493 12.75979156 6.265625 13.98828125 C6.57586609 15.24062057 6.88610718 16.4929599 7.20574951 17.7832489 C8.05841341 21.23257518 8.89434316 24.6857567 9.72601318 28.14019775 C10.25084716 30.3160121 10.77982657 32.4907785 11.31005859 34.6652832 C19.50603304 68.30432469 26.90627226 102.11326093 34 136 C34.24615051 137.17169739 34.49230103 138.34339478 34.74591064 139.55059814 C36.02999914 145.67014606 37.29773618 151.79250512 38.53051758 157.92260742 C38.88044533 159.65907771 39.23418119 161.3947857 39.59204102 163.12963867 C40.06603666 165.43941968 40.52239707 167.75189892 40.97265625 170.06640625 C41.22281494 171.32396729 41.47297363 172.58152832 41.73071289 173.87719727 C42.0178918 177.20748326 41.58227693 178.19153502 40 181 C39.82984375 180.16539246 39.6596875 179.33078491 39.484375 178.47088623 C37.84179103 170.41700979 36.19606985 162.36378122 34.54722595 154.31118393 C33.70062138 150.17604201 32.85503608 146.0406984 32.01220703 141.90478516 C27.64991118 120.50303292 23.10286929 99.15266741 18.30761242 77.84362602 C17.06678777 72.32138495 15.86029712 66.79206258 14.66584778 61.2596283 C12.01904401 49.04764679 9.00351335 36.95412555 5.80273438 24.87768555 C3.6247879 16.62438587 1.71496302 8.36154712 0 0 Z " fill="#272727" transform="translate(386,60)"/>
<path d="M0 0 C2.1926135 4.2186994 4.36894477 8.60185899 3.625 13.4375 C3.41875 13.953125 3.2125 14.46875 3 15 C2.67 14.01 2.34 13.02 2 12 C1.87995605 12.68586182 1.75991211 13.37172363 1.63623047 14.07836914 C-1.70201428 33.09505876 -5.2806604 52.05467409 -9 71 C-10.485 71.495 -10.485 71.495 -12 72 C-11.28204117 66.73046958 -10.40007924 61.50798381 -9.44140625 56.27734375 C-9.13469393 54.58660155 -8.82805573 52.8958459 -8.52148438 51.20507812 C-8.04422961 48.58127436 -7.56617784 45.95762148 -7.08666992 43.33422852 C-5.36776581 33.91897796 -3.70338853 24.51935114 -2.42211914 15.03295898 C-1.72227218 10.00450391 -0.86131354 5.00294886 0 0 Z " fill="#222223" transform="translate(159,130)"/>
<path d="M0 0 C2.14409985 4.10764392 2.53970694 7.39706937 3 12 C2.34 11.01 1.68 10.02 1 9 C0.20788071 10.89564426 -0.58367576 12.79152371 -1.375 14.6875 C-2.03628906 16.27111328 -2.03628906 16.27111328 -2.7109375 17.88671875 C-4.00993952 20.9157991 -4.00993952 20.9157991 -4.9140625 23.76953125 C-6.20781184 26.42683654 -7.27343961 27.00026119 -10 28 C-7.46277869 18.38272302 -3.66846291 9.22643548 0 0 Z " fill="#252526" transform="translate(358,131)"/>
<path d="M0 0 C6.54388917 5.82965938 9.44145647 15.74855587 12.375 23.8125 C12.63772705 24.51713379 12.9004541 25.22176758 13.17114258 25.94775391 C14.76605376 30.49102892 15.26421223 34.18756287 15 39 C13.28990748 36.43486122 12.55739601 34.93511123 11.73828125 32.078125 C11.50963379 31.30654053 11.28098633 30.53495605 11.04541016 29.73999023 C10.8035498 28.91829346 10.56168945 28.09659668 10.3125 27.25 C7.93727588 19.40244579 4.96877091 12.14054237 1.3203125 4.80859375 C0 2 0 2 0 0 Z " fill="#252526" transform="translate(186,66)"/>
<path d="M0 0 C2.13172954 3.19759431 3.03169897 5.90128149 4.1640625 9.56640625 C4.45946426 10.51845192 4.45946426 10.51845192 4.76083374 11.48973083 C5.17491414 12.82796666 5.58661714 14.16694013 5.99609375 15.5065918 C6.62432568 17.56029563 7.26077346 19.61131699 7.8984375 21.66210938 C11 31.7136984 11 31.7136984 11 34 C10.34 34 9.68 34 9 34 C7.86988659 30.66837869 6.74685741 27.33440952 5.625 24 C5.30789062 23.06542969 4.99078125 22.13085938 4.6640625 21.16796875 C-0.38320698 6.13131175 -0.38320698 6.13131175 0 0 Z " fill="#1C1C1D" transform="translate(201,102)"/>
<path d="M0 0 C2.29903669 4.10542266 4.35523153 8.69099505 3.625 13.4375 C3.41875 13.953125 3.2125 14.46875 3 15 C2.67 14.01 2.34 13.02 2 12 C1.71125 12.804375 1.4225 13.60875 1.125 14.4375 C0 17 0 17 -2 18 C-1.8590651 15.56212615 -1.71245458 13.12482147 -1.5625 10.6875 C-1.52318359 9.99720703 -1.48386719 9.30691406 -1.44335938 8.59570312 C-1.25072585 5.52838465 -0.97677283 2.93031848 0 0 Z " fill="#29292A" transform="translate(159,130)"/>
<path d="M0 0 C2 2 2 2 2.046875 3.8828125 C1.36364276 9.04301392 0.59565607 14.03573668 -1 19 C-1.99 19.33 -2.98 19.66 -4 20 C-3.34034961 13.13963599 -1.7637236 6.65556077 0 0 Z " fill="#272728" transform="translate(131,270)"/>
<path d="M0 0 C0.33 0.99 0.66 1.98 1 3 C1.65355469 2.83628906 2.30710937 2.67257812 2.98046875 2.50390625 C6.76991774 1.87151437 10.48490951 1.89303291 14.3125 1.9375 C15.05306641 1.94201172 15.79363281 1.94652344 16.55664062 1.95117188 C18.37112899 1.96287825 20.18557534 1.98081102 22 2 C21.67 2.66 21.34 3.32 21 4 C14.4 4.33 7.8 4.66 1 5 C0.67 3.35 0.34 1.7 0 0 Z " fill="#1B1B1C" transform="translate(427,475)"/>
<path d="M0 0 C0.99 0.33 1.98 0.66 3 1 C3.984375 3.328125 3.984375 3.328125 4.75 6.25 C5.01296875 7.20390625 5.2759375 8.1578125 5.546875 9.140625 C6.01648367 12.10401766 5.77657937 14.12455745 5 17 C3.03470991 13.54792524 2.2253523 10.11523774 1.375 6.25 C1.11460937 5.07953125 0.85421875 3.9090625 0.5859375 2.703125 C0.39257812 1.81109375 0.19921875 0.9190625 0 0 Z " fill="#303031" transform="translate(217,161)"/>
<path d="M0 0 C2.39073445 3.82517513 2.55966552 7.59665524 3 12 C2.34 11.01 1.68 10.02 1 9 C-1.475 10.485 -1.475 10.485 -4 12 C-2.66666667 8 -1.33333333 4 0 0 Z " fill="#343435" transform="translate(358,131)"/>
<path d="M0 0 C-2.55920313 2.55920313 -4.47517679 3.24016221 -8 3.3125 C-11.10984498 3.20226296 -13.35821908 2.76118728 -16 1 C-10.59255982 0.22750855 -5.46137814 -0.09752461 0 0 Z " fill="#2F2F30" transform="translate(461,475)"/>
<path d="M0 0 C2 1 2 1 2.6328125 2.890625 C3.48563453 6.97875601 4.27121668 10.79614144 4 15 C3.34 15 2.68 15 2 15 C0.73694665 9.92523206 -0.27036084 5.27203646 0 0 Z " fill="#191919" transform="translate(463,424)"/>
<path d="M0 0 C0.66 0 1.32 0 2 0 C3.42705634 5.30723432 4.4002792 9.53891111 3 15 C2.67 15 2.34 15 2 15 C1.66048381 13.43883181 1.32867456 11.87598662 1 10.3125 C0.814375 9.44238281 0.62875 8.57226562 0.4375 7.67578125 C0.01027953 5.06287036 -0.07616201 2.64186962 0 0 Z " fill="#2B2B2C" transform="translate(460,411)"/>
<path d="M0 0 C1.60226148 4.00565371 0.47694566 7.08609399 -1 11 C-1.99 11.33 -2.98 11.66 -4 12 C-3.71788123 10.3733152 -3.42397625 8.74867104 -3.125 7.125 C-2.96257812 6.22007812 -2.80015625 5.31515625 -2.6328125 4.3828125 C-2 2 -2 2 0 0 Z " fill="#181819" transform="translate(104,382)"/>
<path d="M0 0 C0.33 0 0.66 0 1 0 C0.88512252 1.58409994 0.75765492 3.16728963 0.625 4.75 C0.52058594 6.07257813 0.52058594 6.07257813 0.4140625 7.421875 C0.00149945 9.99066382 -0.71160957 11.75841015 -2 14 C-2.33 14 -2.66 14 -3 14 C-2.58846263 9.02906176 -2.20399168 4.55491614 0 0 Z " fill="#1C1C1C" transform="translate(158,147)"/>
<path d="M0 0 C0.66 0 1.32 0 2 0 C4.43425238 4.96993194 5.34615998 8.34605369 5 14 C2.99006295 10.98509443 2.27376659 8.7850073 1.375 5.3125 C1.11460937 4.31863281 0.85421875 3.32476562 0.5859375 2.30078125 C0.39257812 1.54152344 0.19921875 0.78226562 0 0 Z " fill="#3C3C3D" transform="translate(196,91)"/>
<path d="M0 0 C2.00993705 3.01490557 2.72623341 5.2149927 3.625 8.6875 C3.88539063 9.68136719 4.14578125 10.67523438 4.4140625 11.69921875 C4.60742188 12.45847656 4.80078125 13.21773437 5 14 C4.34 14.66 3.68 15.32 3 16 C2.49193553 14.27318563 1.99389533 12.54342021 1.5 10.8125 C1.08234375 9.36810547 1.08234375 9.36810547 0.65625 7.89453125 C0.03322392 5.14654124 -0.12302812 2.80401584 0 0 Z " fill="#262627" transform="translate(201,102)"/>
<path d="M0 0 C2 2 2 2 2.125 5.125 C2.08375 6.07375 2.0425 7.0225 2 8 C1.01 8.33 0.02 8.66 -1 9 C-0.67 6.03 -0.34 3.06 0 0 Z " fill="#2E2E2F" transform="translate(153,168)"/>
</svg>
